<svg width="18" height="18" viewBox="0 0 18 18" fill="none" xmlns="http://www.w3.org/2000/svg">
<g id="Group">
<path id="Vector" d="M12.1508 5.39994C11.3843 5.39731 10.6249 5.54583 9.9159 5.83701C9.20692 6.12819 8.56231 6.55632 8.01895 7.09689C7.4756 7.63745 7.04417 8.27986 6.74934 8.98734C6.45452 9.69482 6.30209 10.4535 6.30078 11.2199V17.0999C6.30078 17.3386 6.3956 17.5676 6.56439 17.7363C6.73317 17.9051 6.96209 17.9999 7.20078 17.9999H9.30078C9.53948 17.9999 9.76839 17.9051 9.93718 17.7363C10.106 17.5676 10.2008 17.3386 10.2008 17.0999V11.2199C10.2006 10.9473 10.2578 10.6778 10.3688 10.4288C10.4798 10.1798 10.642 9.95698 10.8448 9.77488C11.0477 9.59278 11.2867 9.45548 11.5461 9.37192C11.8056 9.28836 12.0798 9.26043 12.3508 9.28994C12.8368 9.35115 13.2834 9.5886 13.606 9.95725C13.9286 10.3259 14.1046 10.8001 14.1008 11.2899V17.0999C14.1008 17.3386 14.1956 17.5676 14.3644 17.7363C14.5332 17.9051 14.7621 17.9999 15.0008 17.9999H17.1008C17.3395 17.9999 17.5684 17.9051 17.7372 17.7363C17.906 17.5676 18.0008 17.3386 18.0008 17.0999V11.2199C17.9995 10.4535 17.847 9.69482 17.5522 8.98734C17.2574 8.27986 16.826 7.63745 16.2826 7.09689C15.7393 6.55632 15.0946 6.12819 14.3857 5.83701C13.6767 5.54583 12.9172 5.39731 12.1508 5.39994Z" fill="white"/>
<path id="Vector_2" d="M3.6 6.2998H0.9C0.402944 6.2998 0 6.70275 0 7.1998V17.0998C0 17.5969 0.402944 17.9998 0.9 17.9998H3.6C4.09706 17.9998 4.5 17.5969 4.5 17.0998V7.1998C4.5 6.70275 4.09706 6.2998 3.6 6.2998Z" fill="white"/>
<path id="Vector_3" d="M2.25 4.5C3.49264 4.5 4.5 3.49264 4.5 2.25C4.5 1.00736 3.49264 0 2.25 0C1.00736 0 0 1.00736 0 2.25C0 3.49264 1.00736 4.5 2.25 4.5Z" fill="white"/>
</g>
</svg>
